PathFileType	4	(X/Y/Z)	Kaydara																																																																																																																									
DataRate	CameraRate	NumFrames	NumMarkers	Units	OrigDataRate	OrigDataStartFrame	OrigNumFrames																																																																																																																					
30	30	4	41	mm	30	47	125																																																																																																																					
Frame#	Time	EMLA_LFHD			EMLA_RFHD			EMLA_LBHD			EMLA_RBHD			EMLA_LFTShould			EMLA_RFTShould			EMLA_LRRShould			EMLA_RRRShould			EMLA_T10			EMLA_STRN			EMLA_TRUN			EMLA_LSHO			EMLA_LUPA			EMLA_LELB			EMLA_LFRM			EMLA_LWRA			EMLA_LWRB			EMLA_LFIN			EMLA_RSHO			EMLA_RUPA			EMLA_RELB			EMLA_RFRM			EMLA_RWRA			EMLA_RWRB			EMLA_RFIN			EMLA_LFWT			EMLA_RFWT			EMLA_LBWT			EMLA_RBWT			EMLA_LTHI			EMLA_LKNE			EMLA_LSHN			EMLA_LANK			EMLA_LHEE			EMLA_LTOE			EMLA_RTHI			EMLA_RKNE			EMLA_RSHN			EMLA_RANK			EMLA_RHEE			EMLA_RTOE		
		X1	Y1	Z1	X2	Y2	Z2	X3	Y3	Z3	X4	Y4	Z4	X5	Y5	Z5	X6	Y6	Z6	X7	Y7	Z7	X8	Y8	Z8	X9	Y9	Z9	X10	Y10	Z10	X11	Y11	Z11	X12	Y12	Z12	X13	Y13	Z13	X14	Y14	Z14	X15	Y15	Z15	X16	Y16	Z16	X17	Y17	Z17	X18	Y18	Z18	X19	Y19	Z19	X20	Y20	Z20	X21	Y21	Z21	X22	Y22	Z22	X23	Y23	Z23	X24	Y24	Z24	X25	Y25	Z25	X26	Y26	Z26	X27	Y27	Z27	X28	Y28	Z28	X29	Y29	Z29	X30	Y30	Z30	X31	Y31	Z31	X32	Y32	Z32	X33	Y33	Z33	X34	Y34	Z34	X35	Y35	Z35	X36	Y36	Z36	X37	Y37	Z37	X38	Y38	Z38	X39	Y39	Z39	X40	Y40	Z40	X41	Y41	Z41
																																																																																																																												
47	1.543	270.70719	1630.0528	-1907.75162	100.8892	1628.48648	-1915.9964	291.41949	1625.06363	-2058.10303	96.96052	1626.41541	-2068.92654	274.50296	1400.6839	-1969.97406	123.26464	1392.16797	-1968.98529	266.48464	1447.27158	-2118.37402	109.30964	1439.05411	-2117.38464	199.31011	1271.65054	-2162.6918	197.8083	1331.43585	-1931.48422	193.08105	1228.37776	-1910.99899	399.27639	1420.3569	-2024.82285	453.90728	1235.13611	-2034.92188	469.10374	1093.29979	-2028.82874	465.65983	957.40318	-2013.02979	377.13757	821.84067	-1926.88614	435.2829	796.92375	-1982.94403	426.6721	768.80936	-1918.85803	0.20086	1421.6481	-2035.01862	-58.7692	1226.85715	-2024.07532	-77.46166	1084.01482	-2030.76324	-81.41689	982.43607	-2026.50848	-13.87308	829.90463	-1913.6058	-64.30313	805.73296	-1977.58423	-74.37986	781.60347	-1917.81662	291.9507	988.52592	-1931.78207	56.90517	979.29176	-1956.62231	278.92374	1011.15868	-2131.35178	103.41784	1013.43277	-2133.9183	327.2488	723.1488	-2114.52835	325.57011	518.22857	-2071.14273	296.69432	332.92252	-2071.75369	299.5079	162.00033	-2158.92136	233.34347	86.0063	-2226.37695	270.41969	76.28131	-2029.80026	62.7121	710.20119	-2146.49734	28.49751	509.77379	-2082.61063	73.37141	285.86452	-2082.61566	31.8733	127.57877	-2168.01804	86.0652	76.43968	-2225.52414	55.48204	72.67971	-2023.99994
48	1.577	271.81726	1629.66629	-1903.34869	102.34636	1627.96097	-1911.65619	292.71757	1624.43329	-2053.70621	98.3203	1625.66696	-2064.76669	276.2604	1400.41473	-1965.95398	125.18406	1391.98395	-1964.94629	267.91306	1447.04971	-2114.3779	110.68088	1438.51013	-2113.22266	200.84961	1271.21567	-2158.48999	199.68075	1330.71548	-1927.3201	194.81976	1227.90817	-1906.94565	400.90622	1420.00809	-2020.99869	455.60417	1234.70818	-2031.93665	471.37405	1093.07747	-2026.12595	467.7092	956.85593	-2010.61096	378.38955	821.03912	-1925.71625	436.92295	796.38611	-1981.50085	427.62726	767.86148	-1917.54318	1.7261	1421.04843	-2030.67337	-57.61365	1226.38405	-2019.76563	-76.72079	1083.59772	-2026.26205	-81.17498	982.27921	-2022.27676	-13.82438	829.02145	-1910.16434	-64.61914	805.1886	-1973.91296	-74.51178	780.85312	-1914.16885	293.47092	987.87788	-1928.79883	58.05542	978.46848	-1953.3989	279.54569	1010.12321	-2128.09052	104.2688	1012.71774	-2130.27328	329.01859	721.45081	-2110.22079	326.33999	516.79722	-2065.75775	296.87963	331.23703	-2068.15262	299.56877	161.48275	-2157.92191	233.34517	86.07904	-2226.63696	271.29477	77.08371	-2030.76767	62.38398	709.31831	-2142.73743	28.43786	509.22153	-2078.3313	73.91479	284.74405	-2080.54962	31.55113	127.49963	-2167.47101	85.67269	76.19267	-2225.76477	55.20502	72.9954	-2024.43161
49	1.61	273.49991	1629.12369	-1897.59613	103.9571	1627.22672	-1906.12473	294.55679	1623.58551	-2047.91168	100.16529	1624.58771	-2059.16595	278.37276	1399.96674	-1960.39886	127.23654	1391.5976	-1958.95889	269.79971	1446.57974	-2108.76617	112.57828	1437.78763	-2107.51801	202.93941	1270.60745	-2152.83035	201.77717	1330.103	-1921.71722	197.11988	1227.33841	-1901.17065	402.97432	1419.57626	-2015.59753	458.10005	1234.41345	-2027.00592	474.08924	1092.78847	-2021.59637	470.48485	956.34842	-2006.78314	380.07359	819.8954	-1923.99536	439.64455	795.7444	-1979.09958	429.56902	766.78673	-1915.6012	3.72956	1420.32547	-2024.92859	-56.01965	1225.65224	-2014.15298	-75.57238	1083.10646	-2020.49957	-80.4717	981.78596	-2016.69067	-13.6911	827.89825	-1905.26611	-64.81449	804.58679	-1969.01489	-74.65938	780.06615	-1909.28726	295.46978	986.50642	-1923.33282	59.98682	977.48917	-1948.57056	280.77728	1009.4899	-2123.11356	105.63012	1012.21413	-2125.08987	329.8806	720.87326	-2106.71066	327.08828	516.1977	-2063.17017	297.12351	330.38769	-2066.79855	299.49509	161.40743	-2158.13034	233.22613	86.04152	-2227.37869	272.17325	78.10856	-2032.20367	62.37734	708.91693	-2138.65479	29.21792	508.42262	-2074.28009	74.72068	283.77954	-2078.83942	31.56894	127.52226	-2167.27753	85.90666	76.27295	-2226.78146	55.08633	73.44909	-2025.20111
50	1.643	275.81554	1628.57559	-1890.20813	106.3463	1626.38702	-1898.79532	296.89211	1622.94861	-2040.43686	102.58932	1623.69003	-2051.83578	281.15677	1399.78149	-1952.948	129.78045	1391.22589	-1951.082	272.21949	1445.87936	-2101.08765	115.08325	1437.02103	-2100.0238	205.60621	1269.86771	-2145.07172	204.84402	1329.80331	-1913.89877	200.27319	1226.97388	-1893.27118	405.71445	1419.06982	-2008.48892	461.1137	1234.04686	-2020.42923	477.57065	1092.4881	-2015.22934	474.13425	955.94307	-2001.3562	382.86564	818.55438	-1921.06064	443.49304	794.97375	-1975.48233	432.26604	765.27679	-1912.37671	6.40007	1419.42703	-2017.27249	-54.01171	1224.99947	-2007.07748	-74.01615	1082.57813	-2013.36533	-79.50562	981.38519	-2009.94049	-13.41954	826.56906	-1899.04922	-65.21474	804.24156	-1963.01208	-74.68404	779.19319	-1903.23029	297.63783	984.60747	-1917.95456	61.87596	975.9597	-1942.6387	282.29183	1009.51477	-2117.11426	107.15824	1012.1106	-2118.85696	331.05164	720.63057	-2103.25882	327.91859	515.57308	-2060.905	297.36641	329.60697	-2065.75348	299.66228	161.23547	-2158.41843	233.389	85.8406	-2228.24173	272.58339	79.49763	-2033.54553	63.74856	708.32161	-2134.15115	30.13145	507.69699	-2070.42877	75.87891	283.10534	-2077.42661	31.86435	127.62531	-2167.14462	86.06858	76.18464	-2227.32285	55.17727	73.98582	-2026.02249
